<svg xmlns="http://www.w3.org/2000/svg" width="900" height="560" viewBox="0 0 900 560">
  <defs>
    <linearGradient id="g" x1="0" x2="1" y1="0" y2="1">
      <stop offset="0" stop-color="#3b1d13"/>
      <stop offset="1" stop-color="#b46b45"/>
    </linearGradient>
    <radialGradient id="glow" cx="65%" cy="35%" r="55%">
      <stop offset="0" stop-color="#fff7db" stop-opacity="0.78"/>
      <stop offset="1" stop-color="#000" stop-opacity="0"/>
    </radialGradient>
    <filter id="shadow" x="-20%" y="-20%" width="140%" height="140%">
      <feDropShadow dx="0" dy="24" stdDeviation="20" flood-color="#000" flood-opacity="0.35"/>
    </filter>
  </defs>
  <rect width="900" height="560" fill="url(#g)"/>
  <rect width="900" height="560" fill="url(#glow)"/>
  <circle cx="130" cy="95" r="58" fill="#fff" opacity=".12"/>
  <circle cx="785" cy="90" r="95" fill="#fff" opacity=".13"/>
  <circle cx="740" cy="455" r="115" fill="#000" opacity=".10"/>
  <g filter="url(#shadow)">
    <ellipse cx="450" cy="375" rx="225" ry="50" fill="#140905" opacity=".34"/>
    <circle cx="450" cy="270" r="132" fill="#fff5de" opacity=".96"/>
    <circle cx="450" cy="270" r="103" fill="#7a3f1d" opacity=".88"/>
    <path d="M370 270 C405 215, 496 215, 530 270 C492 250, 410 250, 370 270Z" fill="#fff2d8" opacity=".82"/>
    <path d="M388 300 C425 278, 480 278, 514 300" fill="none" stroke="#fff2d8" stroke-width="18" stroke-linecap="round" opacity=".74"/>
    <path d="M546 238 C625 238, 625 315, 548 315" fill="none" stroke="#fff5de" stroke-width="32" stroke-linecap="round" opacity=".9"/>
  </g>
  <text x="52" y="510" font-family="Arial, sans-serif" font-size="38" font-weight="800" fill="#fff7e7" opacity=".98">Chocolate Brownie</text>
</svg>